# Blender 3.4.1
# www.blender.org
mtllib Corner1.mtl
o Corner1
v -1.000000 -2.000000 -1.000000
v -1.000000 2.000000 -1.000000
v 1.000000 -2.000000 1.000000
v 1.000000 2.000000 1.000000
v 1.000000 -2.000000 -1.000000
v 1.000000 2.000000 -1.000000
v 0.000000 -2.000000 -1.000000
v 0.000000 2.000000 -1.000000
v 0.000000 -2.000000 1.000000
v 0.000000 2.000000 1.000000
v -1.000000 -2.000000 0.000000
v -1.000000 2.000000 0.000000
v 1.000000 -2.000000 0.000000
v 1.000000 2.000000 0.000000
v 0.000000 2.000000 0.000000
vn -1.0000 -0.0000 -0.0000
vn -0.0000 -0.0000 -1.0000
vn 1.0000 -0.0000 -0.0000
vn -0.0000 1.0000 -0.0000
vn -0.0000 -0.0000 1.0000
vn -0.7071 -0.0000 0.7071
vt 0.375000 0.250000
vt 0.625000 0.250000
vt 0.875000 0.500000
vt 0.375000 0.750000
vt 0.625000 0.750000
vt 0.375000 0.500000
vt 0.625000 0.500000
vt 0.375000 0.375000
vt 0.625000 0.375000
vt 0.750000 0.500000
vt 0.375000 0.875000
vt 0.750000 0.750000
vt 0.625000 0.875000
vt 0.375000 0.125000
vt 0.625000 0.125000
vt 0.875000 0.625000
vt 0.375000 0.625000
vt 0.625000 0.625000
vt 0.750000 0.625000
s 0
f 11/14/1 12/15/1 2/2/1 1/1/1
f 7/8/2 8/9/2 6/7/2 5/6/2
f 13/17/3 14/18/3 4/5/3 3/4/3
f 14/18/4 15/19/4 10/12/4 4/5/4
f 3/4/5 4/5/5 10/13/5 9/11/5
f 1/1/2 2/2/2 8/9/2 7/8/2
f 6/7/4 8/10/4 15/19/4 14/18/4
f 8/10/4 2/3/4 12/16/4 15/19/4
f 5/6/3 6/7/3 14/18/3 13/17/3
f 9/11/6 10/13/6 12/15/6 11/14/6
f 15/19/4 12/16/4 10/13/4
