# Blender 3.4.1
# www.blender.org
mtllib Diagonol.mtl
o Diagonol
v 1.000000 -2.284514 -1.000000
v -1.000000 -2.284514 1.000000
v 1.000000 2.284514 -1.000000
v -1.000000 2.284514 1.000000
v 1.000000 2.284514 1.000000
v 1.000000 -2.284514 1.000000
vn -0.0000 -1.0000 -0.0000
vn -0.0000 1.0000 -0.0000
vn -0.0000 -0.0000 1.0000
vn 1.0000 -0.0000 -0.0000
vn -0.7071 -0.0000 -0.7071
vt 0.377137 0.001259
vt 0.628970 -0.000935
vt 0.371485 -0.000935
vt 0.628970 1.001114
vt 0.377137 1.002021
vt 0.371485 1.001114
vt 0.628970 1.001114
vt 0.623935 1.002021
vt 0.628970 -0.000935
vt 0.623935 0.001259
s 0
usemtl Material.002
f 1/2/1 6/9/1 2/3/1
f 3/4/2 4/6/2 5/7/2
f 6/9/3 5/7/3 4/6/3 2/3/3
f 5/8/4 6/10/4 1/1/4 3/5/4
f 2/3/5 4/6/5 3/5/5 1/2/5
