# Blender 3.4.1
# www.blender.org
mtllib Edge.mtl
o Edge
v -1.023975 -1.278513 -1.002105
v 0.974607 -1.278513 -1.002105
v -1.023975 1.278513 -1.002105
v 0.974607 1.278513 -1.002105
v -1.023975 -1.278513 -0.004328
v -1.023975 1.278513 -0.004328
v 0.974607 1.278513 -0.004328
v 0.974607 -1.278513 -0.004328
vn -0.0000 -0.0000 -1.0000
vn -1.0000 -0.0000 -0.0000
vn -0.0000 1.0000 -0.0000
vn 1.0000 -0.0000 -0.0000
vn -0.0000 -0.0000 1.0000
vn -0.0000 -1.0000 -0.0000
vt 0.377137 0.001259
vt 0.371485 -0.000935
vt 0.377137 0.001259
vt 0.628970 -0.000935
vt 0.377137 1.002021
vt 0.371485 1.001114
vt 0.628970 1.001114
vt 0.377137 1.002021
vt 0.500536 0.001259
vt 0.371485 -0.000935
vt 0.371485 1.001114
vt 0.500536 1.002021
vt 0.500536 1.002021
vt 0.628970 1.001114
vt 0.500536 0.001259
vt 0.628970 -0.000935
s 0
usemtl Material.007
f 4/7/1 2/4/1 1/2/1 3/6/1
f 6/12/2 3/5/2 1/1/2 5/9/2
f 7/14/3 4/7/3 3/6/3 6/11/3
f 7/13/4 8/15/4 2/3/4 4/8/4
f 8/16/5 7/14/5 6/12/5 5/10/5
f 2/4/6 8/16/6 5/10/6 1/2/6
