# Blender 3.4.1
# www.blender.org
mtllib Obtuse.mtl
o Obtuse
v -1.023975 -1.278513 -1.002105
v 0.974607 -1.278513 -1.002105
v -1.023975 -1.278513 0.993449
v -1.023975 1.278513 -1.002105
v 0.974607 1.278513 -1.002105
v -1.023975 1.278513 0.993449
v -0.024684 -1.278513 -1.002105
v -0.024684 1.278513 -1.002105
v -0.024684 1.278513 0.993449
v -0.024684 -1.278513 0.993449
v -1.023975 -1.278513 -0.004328
v -1.023975 1.278513 -0.004328
v 0.974607 1.278513 -0.004328
v 0.974607 -1.278513 -0.004328
v -0.024684 1.278513 -0.004328
v -0.024684 -1.278513 -0.004328
vn -0.0000 -0.0000 -1.0000
vn -0.0000 -1.0000 -0.0000
vn -1.0000 -0.0000 -0.0000
vn -0.0000 1.0000 -0.0000
vn -0.0000 -0.0000 1.0000
vn 1.0000 -0.0000 -0.0000
vn 0.7066 -0.0000 0.7076
vt 0.377137 0.001259
vt 0.371485 -0.000935
vt 0.377137 0.001259
vt 0.628970 -0.000935
vt 0.371485 -0.000935
vt 0.623935 0.001259
vt 0.377137 1.002021
vt 0.371485 1.001114
vt 0.377137 1.002021
vt 0.628970 1.001114
vt 0.371485 1.001114
vt 0.623935 1.002021
vt 0.500228 -0.000935
vt 0.500228 1.001114
vt 0.500228 1.001114
vt 0.500228 -0.000935
vt 0.500536 0.001259
vt 0.371485 -0.000935
vt 0.371485 1.001114
vt 0.500536 1.002021
vt 0.500536 1.002021
vt 0.628970 1.001114
vt 0.500536 0.001259
vt 0.628970 -0.000935
vt 0.500228 1.001114
vt 0.500228 -0.000935
s 0
usemtl Material.006
f 8/14/1 7/13/1 1/2/1 4/8/1
f 16/26/2 10/16/2 3/5/2 11/18/2
f 12/20/3 4/7/3 1/1/3 11/17/3
f 15/25/4 8/14/4 4/8/4 12/19/4
f 10/16/5 9/15/5 6/11/5 3/5/5
f 13/21/6 14/23/6 2/3/6 5/9/6
f 14/24/2 10/16/2 16/26/2
f 13/22/4 5/10/4 8/14/4 15/25/4
f 14/23/7 13/21/7 9/15/7 10/16/7
f 5/10/1 2/4/1 7/13/1 8/14/1
f 2/4/2 14/24/2 16/26/2 7/13/2
f 9/15/4 13/22/4 15/25/4
f 9/15/4 15/25/4 12/19/4 6/11/4
f 6/12/3 12/20/3 11/17/3 3/6/3
f 7/13/2 16/26/2 11/18/2 1/2/2
