# Blender 3.4.1
# www.blender.org
mtllib ProtoTerrainWall1.mtl
o Wall02
v -2.474874 -2.284514 -0.000000
v -0.530330 -2.284514 -1.944544
v -0.530330 -2.284514 1.944544
v -2.474874 2.284514 -0.000000
v -0.530330 2.284514 -1.944544
v -0.530330 2.284514 1.944544
v 1.414214 2.284514 0.000000
v 1.414214 -2.284514 0.000000
vn -0.7071 -0.0000 -0.7071
vn -0.0000 -1.0000 -0.0000
vn -0.7071 -0.0000 0.7071
vn -0.0000 1.0000 -0.0000
vn 0.7071 -0.0000 0.7071
vn 0.7071 -0.0000 -0.7071
vt 0.818182 0.454545
vt 0.454546 0.000000
vt 0.227273 0.000000
vt 0.818182 0.227273
vt 0.818182 0.000000
vt 1.000000 0.454545
vt 0.636364 0.000000
vt 0.000000 0.000000
vt 0.454545 0.830732
vt 0.818182 0.000000
vt 0.227273 0.830732
vt 0.818182 0.227273
vt 0.818182 0.830732
vt 0.636364 0.830732
vt 1.000000 0.000000
vt 0.000000 0.830732
vt 1.000000 0.227273
vt 0.227273 0.830732
vt 0.636364 0.830732
vt 1.000000 0.227273
vt 0.227273 0.000000
vt 0.636364 0.000000
s 0
usemtl Material.001
f 5/11/1 2/3/1 1/2/1 4/9/1
f 2/4/2 8/20/2 3/6/2 1/1/2
f 6/14/3 4/9/3 1/2/3 3/7/3
f 7/17/4 5/12/4 4/10/4 6/15/4
f 8/21/5 7/18/5 6/16/5 3/8/5
f 7/19/6 8/22/6 2/5/6 5/13/6
