# Blender 3.4.1
# www.blender.org
mtllib ProtoTerrainCorner0.mtl
o Corner01
v 1.000000 2.284514 -1.000000
v 1.000000 -2.284514 -1.000000
v -1.000000 2.284514 -1.000000
v -1.000000 -2.284514 -1.000000
v -1.000000 2.284514 1.000000
v -1.000000 -2.284514 1.000000
v 1.000000 -2.284514 -0.500000
v 1.000000 2.284514 -0.500000
v -0.500000 2.284514 1.000000
v -0.500000 -2.284514 1.000000
v -1.000000 -2.284514 1.000000
v -1.000000 2.284514 1.000000
v -0.500000 2.284514 1.000000
v -0.500000 -2.284514 1.000000
vn -0.0000 1.0000 -0.0000
vn -0.0000 -0.0000 -1.0000
vn 1.0000 -0.0000 -0.0000
vn 0.7071 -0.0000 0.7071
vn -0.0000 -0.0000 1.0000
vn -1.0000 -0.0000 -0.0000
vn -0.0000 -1.0000 -0.0000
vt 0.528387 1.000000
vt 0.655660 0.999316
vt 0.309522 1.000000
vt 0.528387 0.000000
vt 0.309522 0.000000
vt 0.655660 0.996802
vt 0.562998 0.999316
vt 0.747252 1.000000
vt 0.747252 0.000000
vt 0.562998 0.996802
vt 0.562998 0.999316
vt 0.966117 0.218865
vt 0.000000 0.000000
vt 0.000000 0.000000
vt 0.270832 0.000000
vt 0.655660 0.996802
vt 0.655660 0.999316
vt 0.270831 1.000000
vt 0.586164 0.999316
vt 0.038690 1.000000
vt 0.911400 0.218865
vt 0.038690 0.000000
vt 0.000000 0.000000
vt 0.586164 0.996802
vt 0.000000 0.000000
vt 0.562998 0.996802
vt 0.966117 0.218865
vt 0.000000 0.000000
vt 0.000000 1.000000
vt 0.038690 1.000000
vt 0.911400 0.218865
vt 0.038690 0.000000
vt 0.000000 0.000000
vt 0.586164 0.996802
s 0
usemtl Material
f 10/22/1 9/20/1 13/30/1 14/32/1
f 1/1/2 2/4/2 4/9/2 3/8/2
f 1/2/1 3/7/1 5/11/1 9/19/1 8/17/1
f 2/5/3 1/3/3 8/18/3 7/15/3
f 8/18/4 9/20/4 10/22/4 7/15/4
f 14/32/5 13/30/5 12/29/5 11/25/5
f 6/14/1 10/23/1 14/33/1 11/25/1
f 9/21/1 5/12/1 12/27/1 13/31/1
f 5/13/1 6/14/1 11/25/1 12/28/1
f 4/9/6 11/25/6 12/29/6 3/8/6
f 10/24/7 14/34/7 11/26/7 4/10/7 2/6/7 7/16/7
