# Blender 3.4.1
# www.blender.org
mtllib ProtoTerrainWall0.mtl
o Wall01
v -1.000000 -2.284514 -1.000000
v 1.000000 -2.284514 -1.000000
v -1.000000 -2.284514 1.000000
v -1.000000 2.284514 -1.000000
v 1.000000 2.284514 -1.000000
v -1.000000 2.284514 1.000000
v 1.000000 2.284514 1.000000
v 1.000000 -2.284514 1.000000
vn -0.0000 -0.0000 -1.0000
vn -0.0000 -1.0000 -0.0000
vn -1.0000 -0.0000 -0.0000
vn -0.0000 1.0000 -0.0000
vn -0.0000 -0.0000 1.0000
vn 1.0000 -0.0000 -0.0000
vt 0.371485 -0.000935
vt 0.377137 0.001259
vt 0.628970 -0.000935
vt 0.377137 0.001259
vt 0.623935 0.001259
vt 0.371485 -0.000935
vt 0.377137 1.002021
vt 0.371485 1.001114
vt 0.628970 1.001114
vt 0.377137 1.002021
vt 0.623935 1.002021
vt 0.371485 1.001114
vt 0.628970 1.001114
vt 0.623935 1.002021
vt 0.628970 -0.000935
vt 0.623935 0.001259
s 0
usemtl Material
f 5/9/1 2/3/1 1/1/1 4/8/1
f 2/3/2 8/15/2 3/6/2 1/1/2
f 6/11/3 4/7/3 1/2/3 3/5/3
f 7/13/4 5/9/4 4/8/4 6/12/4
f 8/15/5 7/13/5 6/12/5 3/6/5
f 7/14/6 8/16/6 2/4/6 5/10/6
