# Blender 3.4.1
# www.blender.org
mtllib Ramp.mtl
o Ramp
v -5.000000 -2.000000 4.000000
v -5.000000 -2.000000 -5.000000
v -5.000000 2.000000 -5.000000
v 3.000000 -2.000000 4.000000
v 3.000000 -2.000000 -5.000000
v 3.000000 2.000000 -5.000000
vn 1.0000 -0.0000 -0.0000
vn -0.0000 -0.0000 -1.0000
vn -1.0000 -0.0000 -0.0000
vn -0.0000 0.9138 0.4061
vt 0.000000 0.000000
vt 0.375000 0.250000
vt 0.625000 0.250000
vt 0.000000 0.000000
vt 0.375000 0.500000
vt 0.625000 0.500000
s 0
f 5/5/1 6/6/1 4/4/1
f 2/2/2 3/3/2 6/6/2 5/5/2
f 2/2/3 1/1/3 3/3/3
f 1/1/4 4/4/4 6/6/4 3/3/4
