# Blender 3.4.1
# www.blender.org
mtllib Corner2.mtl
o Corner2
v 1.000000 -2.000000 -1.000000
v 1.000000 2.000000 -1.000000
v 0.000000 -2.000000 -1.000000
v 0.000000 2.000000 -1.000000
v 1.000000 -2.000000 0.000000
v 1.000000 2.000000 0.000000
v 0.000000 3.000000 -1.000000
v 1.000000 3.000000 -1.000000
v 1.000000 3.000000 0.000000
vn -0.0000 -0.0000 -1.0000
vn -0.7071 -0.0000 0.7071
vn 1.0000 -0.0000 -0.0000
vn -0.0000 1.0000 -0.0000
vt 0.375000 0.500000
vt 0.625000 0.500000
vt 0.375000 0.375000
vt 0.625000 0.375000
vt 0.375000 0.625000
vt 0.625000 0.625000
vt 0.625000 0.375000
vt 0.625000 0.500000
vt 0.625000 0.625000
s 0
f 4/4/1 1/1/1 3/3/1
f 5/5/2 4/4/2 3/3/2
f 6/6/2 7/7/2 4/4/2
f 2/2/3 5/5/3 1/1/3
f 8/8/4 7/7/4 9/9/4
f 2/2/3 9/9/3 6/6/3
f 4/4/1 8/8/1 2/2/1
f 4/4/1 2/2/1 1/1/1
f 5/5/2 6/6/2 4/4/2
f 6/6/2 9/9/2 7/7/2
f 2/2/3 6/6/3 5/5/3
f 2/2/3 8/8/3 9/9/3
f 4/4/1 7/7/1 8/8/1
